<svg width="1440" height="479" viewBox="0 0 1440 479" fill="none" xmlns="http://www.w3.org/2000/svg">
<path d="M1440 294L1360 277.7C1280 261 1120 229 960 245C800 261 640 327 480 367.5C320 408 160 425 0 375.7C-160 327 -320 212 -480 204.2C-640 196 -800 294 -960 310.3C-1120 327 -1280 261 -1440 220.5C-1600 180 -1760 163 -1920 204.2C-2080 245 -2240 343 -2400 351.2C-2560 359 -2720 278 -2880 253.2C-3040 229 -3200 261 -3360 294C-3520 327 -3680 359 -3840 351.2C-4000 343 -4160 294 -4320 294C-4480 294 -4640 343 -4800 351.2C-4960 359 -5120 327 -5280 318.5C-5440 310 -5600 327 -5760 302.2C-5920 278 -6080 212 -6240 212.3C-6400 212 -6560 278 -6720 285.8C-6880 294 -7040 245 -7200 269.5C-7360 294 -7520 392 -7680 441C-7840 490 -8000 490 -8160 449.2C-8320 408 -8480 327 -8640 261.3C-8800 196 -8960 147 -9120 122.5C-9280 98 -9440 98 -9600 130.7C-9760 163 -9920 229 -10000 261.3L-10080 294V-3.05176e-05H-10000C-9920 -3.05176e-05 -9760 -3.05176e-05 -9600 -3.05176e-05C-9440 -3.05176e-05 -9280 -3.05176e-05 -9120 -3.05176e-05C-8960 -3.05176e-05 -8800 -3.05176e-05 -8640 -3.05176e-05C-8480 -3.05176e-05 -8320 -3.05176e-05 -8160 -3.05176e-05C-8000 -3.05176e-05 -7840 -3.05176e-05 -7680 -3.05176e-05C-7520 -3.05176e-05 -7360 -3.05176e-05 -7200 -3.05176e-05C-7040 -3.05176e-05 -6880 -3.05176e-05 -6720 -3.05176e-05C-6560 -3.05176e-05 -6400 -3.05176e-05 -6240 -3.05176e-05C-6080 -3.05176e-05 -5920 -3.05176e-05 -5760 -3.05176e-05C-5600 -3.05176e-05 -5440 -3.05176e-05 -5280 -3.05176e-05C-5120 -3.05176e-05 -4960 -3.05176e-05 -4800 -3.05176e-05C-4640 -3.05176e-05 -4480 -3.05176e-05 -4320 -3.05176e-05C-4160 -3.05176e-05 -4000 -3.05176e-05 -3840 -3.05176e-05C-3680 -3.05176e-05 -3520 -3.05176e-05 -3360 -3.05176e-05C-3200 -3.05176e-05 -3040 -3.05176e-05 -2880 -3.05176e-05C-2720 -3.05176e-05 -2560 -3.05176e-05 -2400 -3.05176e-05C-2240 -3.05176e-05 -2080 -3.05176e-05 -1920 -3.05176e-05C-1760 -3.05176e-05 -1600 -3.05176e-05 -1440 -3.05176e-05C-1280 -3.05176e-05 -1120 -3.05176e-05 -960 -3.05176e-05C-800 -3.05176e-05 -640 -3.05176e-05 -480 -3.05176e-05C-320 -3.05176e-05 -160 -3.05176e-05 0 -3.05176e-05C160 -3.05176e-05 320 -3.05176e-05 480 -3.05176e-05C640 -3.05176e-05 800 -3.05176e-05 960 -3.05176e-05C1120 -3.05176e-05 1280 -3.05176e-05 1360 -3.05176e-05H1440V294Z" fill="url(#paint0_linear_339_88)"/>
<defs>
<linearGradient id="paint0_linear_339_88" x1="1440" y1="-3.05176e-05" x2="1440" y2="478.845" gradientUnits="userSpaceOnUse">
<stop stop-color="#344E47"/>
<stop offset="1" stop-color="#DDEAE5"/>
</linearGradient>
</defs>
</svg>
