<svg width="124" height="124" viewBox="0 0 124 124" fill="none" xmlns="http://www.w3.org/2000/svg">
<path d="M91.227 86.0604C84.649 92.6384 68.3134 108.974 63.4121 113.875C62.6311 114.656 61.3678 114.655 60.5867 113.874C55.7573 109.045 39.8194 93.107 32.7729 86.0604C16.6312 69.9187 16.6312 43.7479 32.7729 27.6063C48.9146 11.4646 75.0854 11.4646 91.227 27.6063C107.369 43.7479 107.369 69.9187 91.227 86.0604Z" stroke="#111827" stroke-width="2" stroke-linecap="round" stroke-linejoin="round"/>
<path d="M77.5 56.8333C77.5 65.3938 70.5604 72.3333 62 72.3333C53.4395 72.3333 46.5 65.3938 46.5 56.8333C46.5 48.2729 53.4395 41.3333 62 41.3333C70.5604 41.3333 77.5 48.2729 77.5 56.8333Z" stroke="#111827" stroke-width="2" stroke-linecap="round" stroke-linejoin="round"/>
</svg>
