<svg width="124" height="125" viewBox="0 0 124 125" fill="none" xmlns="http://www.w3.org/2000/svg">
<path d="M87.8334 104H113.667V93.6666C113.667 85.1062 106.727 78.1666 98.1667 78.1666C93.2294 78.1666 88.8313 80.475 85.9928 84.0715M87.8334 104H36.1667M87.8334 104V93.6666C87.8334 90.276 87.1802 87.038 85.9928 84.0715M36.1667 104H10.3334V93.6666C10.3334 85.1062 17.273 78.1666 25.8334 78.1666C30.7707 78.1666 35.1688 80.475 38.0073 84.0715M36.1667 104V93.6666C36.1667 90.276 36.8199 87.038 38.0073 84.0715M38.0073 84.0715C41.8165 74.5552 51.1233 67.8333 62 67.8333C72.8768 67.8333 82.1836 74.5552 85.9928 84.0715M77.5 36.8333C77.5 45.3937 70.5605 52.3333 62 52.3333C53.4396 52.3333 46.5 45.3937 46.5 36.8333C46.5 28.2728 53.4396 21.3333 62 21.3333C70.5605 21.3333 77.5 28.2728 77.5 36.8333ZM108.5 52.3333C108.5 58.0402 103.874 62.6666 98.1667 62.6666C92.4598 62.6666 87.8334 58.0402 87.8334 52.3333C87.8334 46.6263 92.4598 41.9999 98.1667 41.9999C103.874 41.9999 108.5 46.6263 108.5 52.3333ZM36.1667 52.3333C36.1667 58.0402 31.5403 62.6666 25.8334 62.6666C20.1264 62.6666 15.5 58.0402 15.5 52.3333C15.5 46.6263 20.1264 41.9999 25.8334 41.9999C31.5403 41.9999 36.1667 46.6263 36.1667 52.3333Z" stroke="#111827" stroke-width="2" stroke-linecap="round" stroke-linejoin="round"/>
</svg>
