<svg width="124" height="124" viewBox="0 0 124 124" fill="none" xmlns="http://www.w3.org/2000/svg">
<path d="M56.8333 30.3913V99.4076C56.8333 104.429 52.7625 108.5 47.7409 108.5C43.8984 108.5 40.4706 106.084 39.1782 102.466L28.0884 70.6949M93 67.1667C101.56 67.1667 108.5 60.2271 108.5 51.6667C108.5 43.1063 101.56 36.1667 93 36.1667M28.0884 70.6949C20.6889 67.5495 15.5 60.214 15.5 51.6666C15.5 40.2528 24.7528 31 36.1666 31H45.6324C66.8191 31 85.0272 24.6238 93 15.5L93 87.8333C85.0272 78.7095 66.8191 72.3333 45.6324 72.3333L36.1665 72.3333C33.3001 72.3333 30.57 71.7497 28.0884 70.6949Z" stroke="#111827" stroke-width="2" stroke-linecap="round" stroke-linejoin="round"/>
</svg>
