<svg width="48" height="64" viewBox="0 0 48 64" fill="none" xmlns="http://www.w3.org/2000/svg">
<path fill-rule="evenodd" clip-rule="evenodd" d="M0 10.1053V0H32.8024C36.665 0 40.3728 1.67045 43.1261 4.65106C45.801 7.54678 47.4699 11.3816 47.8433 15.4898L47.9103 16.2271C48.029 17.5321 48.029 18.8469 47.9103 20.1519L47.9018 20.2462C47.5078 24.5804 45.8799 28.6638 43.2544 31.916C45.8672 35.0107 47.4999 38.957 47.9025 43.1643C48.0264 44.4593 48.0322 45.7646 47.92 47.0609L47.8363 48.0284C47.4765 52.1852 45.8451 56.0846 43.209 59.0885C40.4545 62.2273 36.6592 64 32.6937 64H0V26.9474H34.9335L36.2764 25.3405C37.6835 23.6569 38.556 21.5165 38.7628 19.2407L38.7714 19.1464C38.8292 18.51 38.8292 17.8689 38.7714 17.2326L38.7044 16.4953C38.5445 14.7362 37.8298 13.0942 36.6845 11.8542C35.6491 10.7334 34.2549 10.1053 32.8024 10.1053H0ZM34.9998 37.0526H9.18455V53.8947H32.6937C34.1674 53.8947 35.5779 53.2359 36.6016 52.0694C37.7931 50.7117 38.5305 48.9492 38.6931 47.0703L38.7769 46.1028C38.831 45.4772 38.8282 44.8472 38.7684 44.2222C38.5683 42.1311 37.7386 40.1737 36.4112 38.661L34.9998 37.0526Z" fill="#344E47"/>
</svg>
