<svg width="24" height="25" viewBox="0 0 24 25" fill="none" xmlns="http://www.w3.org/2000/svg">
<g id="Icon/Outline/phone">
<path id="Icon" d="M3 5.5C3 4.39543 3.89543 3.5 5 3.5H8.27924C8.70967 3.5 9.09181 3.77543 9.22792 4.18377L10.7257 8.67721C10.8831 9.14932 10.6694 9.66531 10.2243 9.88787L7.96701 11.0165C9.06925 13.4612 11.0388 15.4308 13.4835 16.533L14.6121 14.2757C14.8347 13.8306 15.3507 13.6169 15.8228 13.7743L20.3162 15.2721C20.7246 15.4082 21 15.7903 21 16.2208V19.5C21 20.6046 20.1046 21.5 19 21.5H18C9.71573 21.5 3 14.7843 3 6.5V5.5Z" stroke="#111827" stroke-width="2" stroke-linecap="round" stroke-linejoin="round"/>
</g>
</svg>
