<svg width="124" height="125" viewBox="0 0 124 125" fill="none" xmlns="http://www.w3.org/2000/svg">
<path d="M51.6666 73H27.053C19.3714 73 14.3752 64.9161 17.8106 58.0454L35.8939 21.8788C37.6443 18.378 41.2223 16.1666 45.1363 16.1666H65.8945C66.7394 16.1666 67.5811 16.2702 68.4007 16.4752L87.8333 21.3333M51.6666 73V98.8333C51.6666 104.54 56.293 109.167 61.9999 109.167H62.4932C65.0743 109.167 67.1666 107.074 67.1666 104.493C67.1666 100.803 68.259 97.1947 70.3062 94.1239L87.8333 67.8333V21.3333M51.6666 73H61.9999M87.8333 21.3333H98.1666C103.874 21.3333 108.5 25.9597 108.5 31.6666V62.6666C108.5 68.3736 103.874 73 98.1666 73H85.2499" stroke="#111827" stroke-width="2" stroke-linecap="round" stroke-linejoin="round"/>
</svg>
