<svg width="124" height="124" viewBox="0 0 124 124" fill="none" xmlns="http://www.w3.org/2000/svg">
<path d="M47.2071 71.6262C46.8166 71.2357 46.1834 71.2357 45.7929 71.6262C45.4023 72.0168 45.4023 72.6499 45.7929 73.0404L47.2071 71.6262ZM56.8333 82.6667L56.1262 83.3738C56.5167 83.7643 57.1499 83.7643 57.5404 83.3738L56.8333 82.6667ZM78.2071 62.7071C78.5976 62.3166 78.5976 61.6834 78.2071 61.2929C77.8166 60.9024 77.1834 60.9024 76.7929 61.2929L78.2071 62.7071ZM97.1666 36.1667V98.1667H99.1666V36.1667H97.1666ZM87.8333 107.5H36.1666V109.5H87.8333V107.5ZM26.8333 98.1667V36.1667H24.8333V98.1667H26.8333ZM36.1666 26.8333H46.5V24.8333H36.1666V26.8333ZM77.5 26.8333H87.8333V24.8333H77.5V26.8333ZM36.1666 107.5C31.012 107.5 26.8333 103.321 26.8333 98.1667H24.8333C24.8333 104.426 29.9074 109.5 36.1666 109.5V107.5ZM97.1666 98.1667C97.1666 103.321 92.988 107.5 87.8333 107.5V109.5C94.0925 109.5 99.1666 104.426 99.1666 98.1667H97.1666ZM99.1666 36.1667C99.1666 29.9074 94.0925 24.8333 87.8333 24.8333V26.8333C92.988 26.8333 97.1666 31.012 97.1666 36.1667H99.1666ZM26.8333 36.1667C26.8333 31.012 31.012 26.8333 36.1666 26.8333V24.8333C29.9074 24.8333 24.8333 29.9074 24.8333 36.1667H26.8333ZM45.7929 73.0404L56.1262 83.3738L57.5404 81.9596L47.2071 71.6262L45.7929 73.0404ZM57.5404 83.3738L78.2071 62.7071L76.7929 61.2929L56.1262 81.9596L57.5404 83.3738ZM56.8333 16.5H67.1666V14.5H56.8333V16.5ZM67.1666 35.1667H56.8333V37.1667H67.1666V35.1667ZM56.8333 35.1667C51.6787 35.1667 47.5 30.988 47.5 25.8333H45.5C45.5 32.0926 50.5741 37.1667 56.8333 37.1667V35.1667ZM76.5 25.8333C76.5 30.988 72.3213 35.1667 67.1666 35.1667V37.1667C73.4259 37.1667 78.5 32.0926 78.5 25.8333H76.5ZM67.1666 16.5C72.3213 16.5 76.5 20.6787 76.5 25.8333H78.5C78.5 19.5741 73.4259 14.5 67.1666 14.5V16.5ZM56.8333 14.5C50.5741 14.5 45.5 19.5741 45.5 25.8333H47.5C47.5 20.6787 51.6787 16.5 56.8333 16.5V14.5Z" fill="#344E47"/>
</svg>
