<svg width="124" height="124" viewBox="0 0 124 124" fill="none" xmlns="http://www.w3.org/2000/svg">
<path d="M108.5 68.4864C94.1403 74.2991 78.444 77.5 62 77.5C45.5561 77.5 29.8597 74.2991 15.5 68.4864M82.6667 31V20.6667C82.6667 14.9598 78.0403 10.3334 72.3333 10.3334H51.6667C45.9597 10.3334 41.3333 14.9598 41.3333 20.6667V31M62 62H62.0517M25.8333 103.333H98.1667C103.874 103.333 108.5 98.707 108.5 93V41.3334C108.5 35.6264 103.874 31 98.1667 31H25.8333C20.1264 31 15.5 35.6264 15.5 41.3334V93C15.5 98.707 20.1264 103.333 25.8333 103.333Z" stroke="#111827" stroke-width="2" stroke-linecap="round" stroke-linejoin="round"/>
</svg>
